<svg xmlns="http://www.w3.org/2000/svg" xmlns:xlink="http://www.w3.org/1999/xlink" viewBox="0 0 232 64"><defs><style>.cls-1{fill:url(#linear-gradient);}.cls-2{fill:url(#linear-gradient-2);}.cls-3{fill:#ffff;}</style><linearGradient id="linear-gradient" x1="160.57" y1="32.18" x2="196.19" y2="32.18" gradientUnits="userSpaceOnUse"><stop offset="0" stop-color="#5a5a5a"/><stop offset="0.59" stop-color="#585858"/><stop offset="0.83" stop-color="#515151"/><stop offset="1" stop-color="#464646"/></linearGradient><linearGradient id="linear-gradient-2" x1="196.04" y1="32.18" x2="231.65" y2="32.18" gradientUnits="userSpaceOnUse"><stop offset="0" stop-color="#006edc"/><stop offset="0.07" stop-color="#0a74d9"/><stop offset="0.22" stop-color="#157cd5"/><stop offset="0.43" stop-color="#1c81d3"/><stop offset="1" stop-color="#1e82d2"/></linearGradient></defs><g id="IA"><g id="Logo"><path class="cls-1" d="M160.57.45s21.61.59,35.62,17.13V63.9s-11-8.52-19.46-10.71C167.91,50.93,162.91,45,161.94,40,161.76,39,160.57.45,160.57.45Z"/><path class="cls-2" d="M196,17.58V63.9a90.18,90.18,0,0,1,11.25-7.29V45.5A53.79,53.79,0,0,1,219.6,40v11.8c6.27-2.79,9.88-7.58,10.69-11.8C230.47,39,231.65.45,231.65.45S210.05,1,196,17.58ZM219.6,27.67a54,54,0,0,0-12.31,5.45V20.88a46.27,46.27,0,0,1,12.31-5.47Z"/></g><path class="cls-3" d="M4.92,59.3H4.44A1.85,1.85,0,0,1,2.5,58.07a14.64,14.64,0,0,1-.41-3.73c0-1.14-.1-1.94-.17-2.41a5.55,5.55,0,0,0-.45-1.48L2.9,49a4,4,0,0,1,.45,1.75c0,.25,0,.86,0,1.82v2.31a4.63,4.63,0,0,0,.24,1.75,1,1,0,0,0,1,.58h.33Z"/><path class="cls-3" d="M9.22,59.3H8.66a1.64,1.64,0,0,1-1.16-.55,2.23,2.23,0,0,1-.65-1.16,2,2,0,0,1-.69,1.16A1.75,1.75,0,0,1,5,59.3H4.45V57.16h.47a1.39,1.39,0,0,0,1.24-.7,2.29,2.29,0,0,0,.37-1.29h.66a2.45,2.45,0,0,0,.35,1.36,1.36,1.36,0,0,0,1.21.63h.47Zm-.28,2.11L7.86,62.48l-1.09-1-1,1-1.15-1,1.08-1.1,1.09,1,1-1Z"/><path class="cls-3" d="M15.69,59.3H8.74V57.16h7Z"/><path class="cls-3" d="M21,57.33a5.24,5.24,0,0,1-1.42,2.22A3.69,3.69,0,0,1,17,58.28c-.38.68-.8,1-1.27,1h-.47V57.16h.69c.2,0,.5-.36.91-1.09A9.61,9.61,0,0,1,18,54.23a3,3,0,0,1,2.24.73A3.41,3.41,0,0,1,21,57.33ZM19.76,58c0-.1,0-.2,0-.29a1.73,1.73,0,0,0-1.58-1.81,1.51,1.51,0,0,0-.61.9A3.52,3.52,0,0,0,19.76,58Z"/><path class="cls-3" d="M27.19,55.91a6.65,6.65,0,0,1-.46,2.68,2.6,2.6,0,0,1-1.26.62,6.68,6.68,0,0,1-1.77.25,2.61,2.61,0,0,1-1.55-.41,10.22,10.22,0,0,1,.34-2.44h.31a2.08,2.08,0,0,0,.24.48,1.23,1.23,0,0,0,.93.33,4.08,4.08,0,0,0,2.26-.54c-.32-1.32-1.36-2.14-3.12-2.48L23.5,52A6.08,6.08,0,0,1,26,53.41,3.42,3.42,0,0,1,27.19,55.91Z"/><path class="cls-3" d="M31.86,59.3h-.48a1.85,1.85,0,0,1-1.94-1.23A14.64,14.64,0,0,1,29,54.34c0-1.14-.1-1.94-.17-2.41a5.94,5.94,0,0,0-.45-1.48L29.84,49a4,4,0,0,1,.45,1.75c0,.25,0,.86,0,1.82v2.31a4.63,4.63,0,0,0,.24,1.75,1,1,0,0,0,1,.58h.33Z"/><path class="cls-3" d="M38.09,48.76l-.89,2.08a32.18,32.18,0,0,0-4.6,1.82,5,5,0,0,1,3,2.26,9.43,9.43,0,0,1-.33,3,4.28,4.28,0,0,1-3.37,1.39h-.63V57.16h.67c.78,0,1.28,0,1.51,0a2.92,2.92,0,0,0,1.35-.57,5.2,5.2,0,0,0-3-2.51A22.16,22.16,0,0,1,32,51.27a31,31,0,0,1,3-1.46A15.35,15.35,0,0,1,38.09,48.76Z"/><path class="cls-3" d="M41.46,47.8c0,.11-.17.24-.5.39a2.78,2.78,0,0,1-.83.22l-.79,0a1,1,0,0,0-.15.4c0,.14-.09.2-.14.2-.23,0-.34,0-.34-.1a2.94,2.94,0,0,1,.12-.84c.08-.29.18-.44.29-.44a1.23,1.23,0,0,1,.32.06,1.72,1.72,0,0,0,.37.05,3.77,3.77,0,0,0,1.63-.44A3.51,3.51,0,0,1,41.46,47.8ZM41,48.94a15.78,15.78,0,0,1,.2,2.86,45.41,45.41,0,0,1-.56,6.75l-.79,1.18V56.8a21.61,21.61,0,0,0-.69-6.25Z"/><path class="cls-3" d="M55.14,59.05a9.62,9.62,0,0,1-.51,2.64,5.41,5.41,0,0,1-1.86,1.36,7,7,0,0,1-3.13.72,3.5,3.5,0,0,1-2.89-1.08A2.66,2.66,0,0,1,46.19,61a7.58,7.58,0,0,1,1.67-3.85.45.45,0,0,1,.33,0,.41.41,0,0,1,.23.24,4.86,4.86,0,0,0-.88,2.39,1.59,1.59,0,0,0,.76,1.42,3.05,3.05,0,0,0,1.71.43,7.24,7.24,0,0,0,2.64-.5,3.25,3.25,0,0,0,1.5-1,5.26,5.26,0,0,0-1.43-2.87l.85-2.13a6.87,6.87,0,0,1,1,1.76A5.47,5.47,0,0,1,55.14,59.05ZM52.22,54.2,51,55.39l-1.24-1.23L51,53Z"/><path class="cls-3" d="M58.19,48.94a15.78,15.78,0,0,1,.2,2.86,45.41,45.41,0,0,1-.56,6.75L57,59.73V56.8a21.2,21.2,0,0,0-.7-6.25Z"/><path class="cls-3" d="M65.77,59.3h-.46a1.76,1.76,0,0,1-1.09-.39,8.3,8.3,0,0,1-2.65,4.83,3.77,3.77,0,0,1-1.13-.31A5.17,5.17,0,0,1,59,62.64c2.44-1.17,3.84-2.28,4.19-3.35a4,4,0,0,0-1.58-1.81l1.06-2.1A12.45,12.45,0,0,0,64,56.75a2.11,2.11,0,0,0,1.31.41h.49Z"/><path class="cls-3" d="M69,56a5.16,5.16,0,0,1-.75,2.25,3,3,0,0,1-2.47,1.1h-.5V57.16h.81c1.13,0,1.7-.16,1.7-.5a4.21,4.21,0,0,0-.88-1.55l1.2-1.64A4.1,4.1,0,0,1,69,56Zm1.08,5.46L69,62.48l-1.1-1-1,1-1.15-1,1.08-1.1,1.1,1,1-1Z"/><path class="cls-3" d="M73.15,48.94a15.78,15.78,0,0,1,.2,2.86,45.41,45.41,0,0,1-.56,6.75L72,59.73V56.8a21.2,21.2,0,0,0-.7-6.25Z"/><path class="cls-3" d="M83.21,55.91a6.83,6.83,0,0,1-.46,2.68,2.59,2.59,0,0,1-1.27.62,6.56,6.56,0,0,1-1.76.25,2.66,2.66,0,0,1-1.56-.41,10.29,10.29,0,0,1,.35-2.44h.31a1.5,1.5,0,0,0,.24.48,1.2,1.2,0,0,0,.93.33,4.11,4.11,0,0,0,2.26-.54c-.33-1.32-1.36-2.14-3.12-2.48L79.51,52A6.12,6.12,0,0,1,82,53.41,3.45,3.45,0,0,1,83.21,55.91Z"/><path class="cls-3" d="M86.26,48.94a14.76,14.76,0,0,1,.21,2.86,44.2,44.2,0,0,1-.57,6.75l-.79,1.18V56.8a21.2,21.2,0,0,0-.7-6.25Z"/><path class="cls-3" d="M92.23,59a6.22,6.22,0,0,1-.82,2.56,9.13,9.13,0,0,1-1.62,2.39,4.2,4.2,0,0,1-1.39-.36,4.25,4.25,0,0,1-1.35-.77,13.23,13.23,0,0,0,2.53-1.51,4,4,0,0,0,1.54-1.82,3.51,3.51,0,0,0-1.44-1.71l1.08-2.08a4.1,4.1,0,0,1,1,1.52A4.64,4.64,0,0,1,92.23,59Zm-.38-5.79-1.26,1.19-1.23-1.23L90.64,52Z"/><path class="cls-3" d="M96,47.8c0,.11-.17.24-.5.39a2.78,2.78,0,0,1-.83.22l-.79,0a1.24,1.24,0,0,0-.15.4c0,.14-.09.2-.14.2-.22,0-.34,0-.34-.1a2.94,2.94,0,0,1,.12-.84c.08-.29.18-.44.3-.44a1.24,1.24,0,0,1,.31.06,1.72,1.72,0,0,0,.37.05A3.73,3.73,0,0,0,96,47.34,3.51,3.51,0,0,1,96,47.8Zm-.42,1.14a15.78,15.78,0,0,1,.2,2.86,45.41,45.41,0,0,1-.56,6.75l-.79,1.18V56.8a21.61,21.61,0,0,0-.69-6.25Z"/><path class="cls-3" d="M111,53.34l-.94,2.08a2.44,2.44,0,0,0-.84-.16c-.87,0-1.58.63-2.11,1.9,0,.18.32.36.89.52l1.53.44c.54.21.82.47.82.79a8.72,8.72,0,0,1-.67,2.89,11.35,11.35,0,0,1-5.86,1.7,3.39,3.39,0,0,1-2.15-.61,2.44,2.44,0,0,1-.91-2.08,6.69,6.69,0,0,1,.42-2.09A10.73,10.73,0,0,1,102,56.9a.58.58,0,0,1,.59.28,4.81,4.81,0,0,0-.63,2.3c0,1.27.83,1.9,2.48,1.9A11.69,11.69,0,0,0,107,61a8.09,8.09,0,0,0,2.42-.89,5.69,5.69,0,0,0-2-.75,2.22,2.22,0,0,1-1.44-.76,7.25,7.25,0,0,1,.32-1.57,8.37,8.37,0,0,1,1.17-2.6,2.82,2.82,0,0,1,2.32-1.38A3.1,3.1,0,0,1,111,53.34Z"/><path class="cls-3" d="M115.62,59.3h-.47a1.86,1.86,0,0,1-2-1.23,15.14,15.14,0,0,1-.41-3.73,21.42,21.42,0,0,0-.17-2.41,5.89,5.89,0,0,0-.44-1.48l1.43-1.5a4,4,0,0,1,.44,1.75c0,.25,0,.86,0,1.82v2.31a4.39,4.39,0,0,0,.25,1.75,1,1,0,0,0,1,.58h.33Z"/><path class="cls-3" d="M122.25,55.53c0,.18,0,.37,0,.55a4.59,4.59,0,0,1-.43,2,3.07,3.07,0,0,1-.64,1,11,11,0,0,1-3-.8,5.88,5.88,0,0,1-2.62,1.08h-.48V57.16h1.57c-.56-.38-.83-.77-.83-1.18,0-.69.7-1.27,2.1-1.75l-.91-.54.18-2.21c.67.42,1.29.83,1.86,1.25A17,17,0,0,1,122.25,55.53ZM119,54.94a2.48,2.48,0,0,0-.45,0,1.34,1.34,0,0,0-1.22.84,1.86,1.86,0,0,0,1.18.86,1.18,1.18,0,0,0,.66-1A1.49,1.49,0,0,0,119,54.94Zm2.49,1.84a3.14,3.14,0,0,0-.56-.64l-1-.8a2.07,2.07,0,0,1,0,.35,1.29,1.29,0,0,1-.57,1.26c.78.3,1.37.5,1.75.6A1.09,1.09,0,0,0,121.45,56.78Z"/><path class="cls-3" d="M128.16,56.23a6.7,6.7,0,0,1-.47,2.44,2.86,2.86,0,0,1-1.93.64,3.06,3.06,0,0,1-2.3-.91,5.89,5.89,0,0,1,1.12-3.51l-.46-.19.64-1.93a7,7,0,0,1,2.12.89A3,3,0,0,1,128.16,56.23Zm-.77.74a1.66,1.66,0,0,0-.74-1.24,3,3,0,0,0-1.31-.64,6.7,6.7,0,0,0-.83,1.81,2.07,2.07,0,0,0,1.56.58A1.64,1.64,0,0,0,127.39,57Z"/><path class="cls-3" d="M134,59a6.22,6.22,0,0,1-.82,2.56,9.13,9.13,0,0,1-1.62,2.39,4.2,4.2,0,0,1-1.39-.36,4.25,4.25,0,0,1-1.35-.77,12.84,12.84,0,0,0,2.52-1.51,4,4,0,0,0,1.55-1.82,3.56,3.56,0,0,0-1.44-1.71l1.07-2.08a4.11,4.11,0,0,1,1,1.52A4.64,4.64,0,0,1,134,59Z"/><path class="cls-3" d="M139.93,58.24a8.62,8.62,0,0,1-2.37,5.56,5.12,5.12,0,0,1-1.47-.27,5.75,5.75,0,0,1-1.55-.69,10.93,10.93,0,0,0,2.93-1.69,6.93,6.93,0,0,0,1.61-2.06,3.89,3.89,0,0,1-1.36.24,3.22,3.22,0,0,1-2.18-.76,5.61,5.61,0,0,1,.76-3,3.27,3.27,0,0,1,1.17-1.17,2,2,0,0,1,1.61.85A4.59,4.59,0,0,1,139.93,58.24Zm-1.17-.79a2.76,2.76,0,0,0-.78-1,1.12,1.12,0,0,0-.68-.3c-.12,0-.26.11-.43.32a1.83,1.83,0,0,0-.32.66.74.74,0,0,0,.49.37,2.66,2.66,0,0,0,.9.15A2,2,0,0,0,138.76,57.45Z"/><path class="cls-3" d="M146.18,55.91a6.83,6.83,0,0,1-.46,2.68,2.59,2.59,0,0,1-1.27.62,6.56,6.56,0,0,1-1.76.25,2.64,2.64,0,0,1-1.56-.41,10.22,10.22,0,0,1,.34-2.44h.32a1.5,1.5,0,0,0,.24.48,1.2,1.2,0,0,0,.93.33,4.13,4.13,0,0,0,2.26-.54c-.33-1.32-1.37-2.14-3.12-2.48l.38-2.43A6.12,6.12,0,0,1,145,53.41,3.45,3.45,0,0,1,146.18,55.91Z"/><path class="cls-3" d="M46.11,32.28H44.3q-3.3,0-4.26-4C39,31,37.35,32.26,35.25,32.26S31.71,31,30.93,28.61q-1.26,3.67-4.6,3.67a3.63,3.63,0,0,1-2.41-.84c0,.28,0,.58,0,.89a22,22,0,0,1-.38,3.84,9.88,9.88,0,0,1-.65,2.52,14.9,14.9,0,0,1-5,3.67,19,19,0,0,1-8.42,1.91c-3.62,0-6.21-1-7.77-2.9A7.11,7.11,0,0,1,.25,36.8q0-3.91,4.47-10.37a1.24,1.24,0,0,1,.9.13,1.11,1.11,0,0,1,.62.66Q3.89,31,3.89,33.65a4.27,4.27,0,0,0,2,3.82A8.4,8.4,0,0,0,10.5,38.6a19.48,19.48,0,0,0,7.12-1.34,8.67,8.67,0,0,0,4-2.6A14.23,14.23,0,0,0,17.78,27L20,21.43a37.65,37.65,0,0,0,2.88,3.8,4.66,4.66,0,0,0,3.38,1.36,3.61,3.61,0,0,0,3.36-2.08,6.65,6.65,0,0,0,.75-3.12h1.89a10.34,10.34,0,0,0,.42,3.54,2.82,2.82,0,0,0,2.9,1.71,3.24,3.24,0,0,0,3-2,7.15,7.15,0,0,0,.74-3.19h1.89a10.16,10.16,0,0,0,.42,3.46,2.7,2.7,0,0,0,2.79,1.7h1.66Z"/><path class="cls-3" d="M67.4,32.28H66.12a7.07,7.07,0,0,1-4.41-1.63,21.44,21.44,0,0,1-3.26-3.47,21.39,21.39,0,0,0-2.66-3,11.69,11.69,0,0,1-.42,3.76,8.84,8.84,0,0,1-3.38,3,12.17,12.17,0,0,1-5.78,1.36H44.83V26.53h2q5.29,0,7.1-1.72A17.78,17.78,0,0,0,45.67,18a46.69,46.69,0,0,1,.67-7.15A63,63,0,0,1,63.79,3.9L61.27,9.31a55.84,55.84,0,0,0-7.6,2.63c-2.37,1-4.16,1.77-5.38,2.41a31,31,0,0,1,7.56,4.54,40.12,40.12,0,0,1,3.95,3.63,32.94,32.94,0,0,0,3,2.86,5.74,5.74,0,0,0,3.34,1.15H67.4Z"/><path class="cls-3" d="M78.93,32.28h-1.5a4.42,4.42,0,0,1-3.12-1.49,6.14,6.14,0,0,1-1.75-3.13,5.38,5.38,0,0,1-1.85,3.13,4.7,4.7,0,0,1-3.12,1.49H66.12V26.53h1.26a3.8,3.8,0,0,0,3.34-1.89,6.39,6.39,0,0,0,1-3.46h1.79a6.49,6.49,0,0,0,.94,3.65,3.61,3.61,0,0,0,3.24,1.7h1.26Zm-.74,5.65-2.9,2.9-2.94-2.58L69.67,41l-3.09-2.7,2.9-3,2.94,2.62,2.68-2.75Z"/><path class="cls-3" d="M93.06,27c-1.24,3-2.51,5-3.83,6q-3.47,0-6.9-3.4c-1,1.84-2.15,2.75-3.43,2.75H77.64V26.53h1.87c.53,0,1.35-1,2.44-2.94a25.72,25.72,0,0,1,3.29-4.93c2.79,0,4.79.64,6,1.94S93.06,24,93.06,27Zm-3.2,1.76a7.45,7.45,0,0,0,0-.79q0-4-4.25-4.87A4.11,4.11,0,0,0,84,25.5Q85.67,27.77,89.86,28.73Z"/><path class="cls-3" d="M109.33,23.15a17.8,17.8,0,0,1-1.24,7.2,6.83,6.83,0,0,1-3.4,1.68,18,18,0,0,1-4.75.67,7.21,7.21,0,0,1-4.17-1.09A27.44,27.44,0,0,1,96.69,25h.84a3.78,3.78,0,0,0,.65,1.28,3.22,3.22,0,0,0,2.5.9,10.92,10.92,0,0,0,6.07-1.47q-1.31-5.28-8.38-6.65l1-6.53a16.17,16.17,0,0,1,6.65,3.88A9.21,9.21,0,0,1,109.33,23.15Z"/><path class="cls-3" d="M121.36,32.28h-1.28q-4,0-5.23-3.31c-.56-1.52-.92-4.85-1.09-10a62.78,62.78,0,0,0-.46-6.5,16.26,16.26,0,0,0-1.2-4l3.85-4a10.66,10.66,0,0,1,1.19,4.73q.09,1,.09,4.89v6.19a12.18,12.18,0,0,0,.65,4.71,2.65,2.65,0,0,0,2.6,1.57h.88Z"/><path class="cls-3" d="M138.12,3.94l-2.4,5.6a84,84,0,0,0-12.36,4.9c3.75,1.21,6.4,3.24,8,6.06a24.85,24.85,0,0,1-.88,8,11.47,11.47,0,0,1-9.05,3.76h-1.7V26.53h1.81a37.13,37.13,0,0,0,4.05-.13,7.38,7.38,0,0,0,3.63-1.53q-1.84-4.2-8.16-6.74a57.34,57.34,0,0,1,.71-7.45,86.45,86.45,0,0,1,8.12-3.91A42.91,42.91,0,0,1,138.12,3.94Z"/><path class="cls-3" d="M146.67,1.36q0,.45-1.35,1.05a7.06,7.06,0,0,1-2.23.59c-.66,0-1.36.08-2.12.1a3.73,3.73,0,0,0-.42,1.09c-.11.36-.23.55-.35.55q-.93,0-.93-.3a8,8,0,0,1,.32-2.24c.22-.79.49-1.18.8-1.18a3.54,3.54,0,0,1,.84.15,4.21,4.21,0,0,0,1,.14A9.76,9.76,0,0,0,146.6.12,6.88,6.88,0,0,1,146.67,1.36Zm-1.14,3.06a40.67,40.67,0,0,1,.55,7.71,121.2,121.2,0,0,1-1.51,18.12l-2.12,3.19,0-7.9q0-11-1.87-16.79Z"/></g></svg>