<svg version="1.1" id="prefix__Layer_1" xmlns="http://www.w3.org/2000/svg" x="0" y="0" viewBox="0 0 600 600" xml:space="preserve"><style>.prefix__st0{fill:#6cab43}</style><path class="prefix__st0" d="M363.3 316.7c.5-1 0-2.2-1-2.7-2.7-1.2-5.2-4.6-7.2-9.6-6-15-6.7-41.9-6.7-51.8v-3.8c0-1.1-.9-2.1-2-2.1-.5 0-.8.2-1.2.4-.3-.2-.6-.4-1-.4-1.1 0-1.9.9-1.9 2v3.5c0 6-.3 19-2.3 31.1-1 6-2.4 11.8-4.4 16.4-2 4.6-4.5 7.7-7.2 8.8-1 .4-1.5 1.6-1 2.6.3.7 1 1.2 1.8 1.2.3 0 .5-.1.8-.2 4.2-1.8 7.1-5.9 9.3-10.9 3.2-7.4 4.9-17.3 5.8-26.4.3 4 .8 8.2 1.4 12.3 1 6.8 2.5 13.4 4.6 18.8 2.2 5.4 5 9.8 9.3 11.8.3.1.6.2.8.2 1 0 1.8-.4 2.1-1.2m112.4-8.1c-2.7-1.1-5.3-4.3-7.2-8.9-6-13.8-6.7-38.9-6.6-48.1v-3.5c0-.5-1-.2-1.9.5v-.6s-4 1.5-4 3.9c0 6.6-.3 21-2.3 34.3-1 6.7-2.4 13.1-4.4 18.1-2 5-4.5 8.5-7.2 9.7-1 .5-1.5 1.7-1 2.7.3.7 1.1 1.2 1.9 1.2.3 0 .6-.1.8-.2 4.3-2 7.1-6.5 9.3-11.9 3.4-8.8 5.1-20.7 6-31.5.3 3.1.7 6.2 1.2 9.4 1 6.3 2.5 12.4 4.6 17.5 2.2 5 5 9.1 9.3 11 .3.1.5.2.8.2.8 0 1.5-.4 1.8-1.2.4-1.1-.1-2.2-1.1-2.6"/><path d="M490 321.7c-4-3.7-9.1-4.8-14.3-4.8-11.9.1-25.8 5.6-34.6 5.5-3 0-5.1-.6-6.4-1.8-1.1-1-2.7-.8-3.6.5-.9 1.2-.7 3 .4 3.9 2.7 2.3 6.1 3 9.6 3 .5 0 1 0 1.5-.1 4.9 2.1 10.4 3.3 16.2 3.3 9.1 0 17.4-2.9 23.9-7.7 1.5.6 2.8 1.3 3.9 2.4 1.1 1 2.7.9 3.7-.3.9-1.1.8-2.9-.3-3.9m-119.5-1c-1.3 1.1-3.4 1.8-6.4 1.8-8.8.1-22.7-5.5-34.6-5.5-5.2 0-10.3 1.1-14.3 4.8-1.1 1-1.2 2.8-.3 4 .9 1.2 2.6 1.3 3.7.3s2.4-1.8 3.9-2.4c6.5 4.8 14.8 7.7 23.9 7.7 5.8 0 11.3-1.2 16.2-3.3.5 0 1 .1 1.5.1 3.5 0 6.9-.7 9.6-3 1.1-1 1.3-2.7.4-3.9-.9-1.4-2.5-1.6-3.6-.6" fill="#b5d5a1"/><path class="prefix__st0" d="M227 414.5c.2 1.1.5 2.6 1 4.4.5 1.8 1.2 3.8 2 5.9.9 2.1 2 4.3 3.4 6.5s3 4.2 5 6.1c2.2 2.2 4.2 3.8 6.3 4.9 2 1.1 3.9 1.9 5.8 2.5 1.8.5 3.6.8 5.2.8 1.6.1 3.2.1 4.6.1 5 0 9-.8 12.2-2.3 3.2-1.5 5.7-3.4 7.5-5.7 1.8-2.3 3.1-4.6 3.9-7.1.8-2.5 1.1-4.7 1.1-6.5 0-3.5-.8-6.3-2.5-8.6-1.6-2.3-3.8-4.1-6.5-5.6s-5.8-2.8-9.3-3.8c-3.5-1-7-2.1-10.7-3.2-3.7-1.1-7.2-2.3-10.7-3.8-3.5-1.5-6.6-3.3-9.3-5.6-2.7-2.3-4.9-5.1-6.5-8.5-1.6-3.4-2.5-7.6-2.5-12.7 0-3.7.8-7.4 2.5-10.8 1.7-3.5 4-6.5 7-9.2 3-2.7 6.6-4.8 10.8-6.5 4.2-1.6 8.7-2.5 13.6-2.5 3.1 0 5.8.3 8.2.8 2.3.6 4.4 1.2 6.2 1.8 1.8.6 3.3 1.2 4.7 1.8 1.4.6 2.6.8 3.7.8 1.3 0 2.2-.2 2.6-.6s.9-1.2 1.3-2.3h2.2v26.7H288c-1.1-3.3-2.3-6.5-3.6-9.7-1.3-3.2-2.9-6.1-4.9-8.7-2-2.6-4.5-4.7-7.5-6.3-3-1.6-6.8-2.4-11.4-2.4-3.8 0-7.1.5-9.9 1.5-2.9 1-5.3 2.4-7.2 4.1-2 1.7-3.5 3.6-4.5 5.6-1 2.1-1.5 4.2-1.5 6.3 0 3.3.9 6 2.6 8.2 1.7 2.2 4 4 6.8 5.6 2.8 1.5 6 2.9 9.6 4 3.6 1.1 7.3 2.3 11.1 3.5 3.8 1.2 7.5 2.6 11.1 4 3.6 1.5 6.8 3.3 9.6 5.6s5.1 5 6.8 8.2c1.7 3.2 2.6 7.1 2.6 11.8 0 4.6-.9 9-2.8 13.1s-4.5 7.7-7.9 10.8c-3.4 3.1-7.5 5.6-12.2 7.4-4.7 1.8-10 2.7-15.8 2.7-2.9 0-5.8-.3-8.6-.8-2.9-.6-5.5-1.1-8-1.8-2.5-.6-4.7-1.2-6.6-1.8-1.9-.6-3.4-.8-4.3-.8-1.3 0-2.3.2-2.8.6-.6.4-1.1 1.3-1.5 2.6h-2.3v-31.2h2.1zm-21.6-69v24.1h-1.8c-.5-1.6-1.3-3.6-2.4-6.1-1.1-2.5-2.7-4.9-4.7-7.2s-4.6-4.4-7.8-6.1c-3.2-1.7-7.1-2.6-11.7-2.6h-22.4V391h7.9c3.5 0 6.4-.5 8.8-1.5 2.4-1 4.4-2.4 6-4.2 1.6-1.8 2.9-4 3.9-6.6 1-2.6 1.9-5.5 2.5-8.6h1.8v43.7h-1.8c-.7-2.7-1.4-5.3-2.3-7.9-.9-2.5-2.1-4.8-3.6-6.7-1.5-1.9-3.4-3.4-5.6-4.6-2.2-1.1-4.9-1.7-8.2-1.7h-9.4v50.8h23.1c4.3 0 8.2-.7 11.7-2.2 3.5-1.5 6.5-3.5 9.2-6.1 2.7-2.6 4.9-5.7 6.7-9.2 1.8-3.5 3.1-7.3 4.1-11.3h1.8v30.8h-89.9v-2h12.9v-96.2h-12.9v-2h84.1zM99.8 425.7c-.3 3.5-1.4 6.8-3.2 10.1-1.8 3.2-4.6 6-8.4 8.4-3.8 2.3-9.2 3.5-16.1 3.5-2.4 0-5-.2-7.6-.6-2.6-.4-5-1.2-7.2-2.3-2.2-1.1-3.9-2.7-5.3-4.6-1.4-2-2.1-4.5-2.1-7.5 0-.5 0-1.2.1-2.3.1-1.1.5-2.2 1.2-3.3.7-1.1 1.8-2.1 3.3-3 1.5-.9 3.7-1.3 6.5-1.3.8 0 1.6.1 2.6.2s1.9.4 2.8.9c.9.5 1.6 1.1 2.2 2 .6.9.9 2.1.9 3.6 0 .7-.1 1.5-.3 2.5-.2 1-.4 2.1-.7 3.2-.3 1.1-.5 2.2-.7 3.1-.2.9-.3 1.6-.3 2 0 1.4.3 2.5.8 3.2.5.8 1.1 1.3 1.8 1.6.7.3 1.3.5 2 .6.7.1 1.2.1 1.6.1 1.6 0 2.8-.3 3.6-.9s1.4-1.4 1.8-2.3c.4-.9.6-1.9.6-3s.1-2 .1-2.9v-89H67v-2h46.3v2h-12.9V417c-.1 2.3-.3 5.2-.6 8.7"/><path d="M325.8 422.6l10.5-6.6-.8 12.4 6.2 3.7.2-19.1 5.7-9.6-5.6-3.4-5.7 9.6-16.7 9.3 6.2 3.7zm26.3 13.5L372 442l1.5-4.9-6.8-2 6.4-21.6-6.2-1.8-6.4 21.6-6.8-2-1.6 4.8zm32.2-14.6l11.8 1.1-.6 6.4-10.8-1-.5 5.2 10.8 1-.5 5.6-11.4-1.1-.5 5.2 17.9 1.7L403 418l-18.2-1.7-.5 5.2zm29.7 23.4l6.5-.6-2.7-27.6-6.5.6 2.7 27.6zm14.1-21.2c1.1-1.9 3.2-3.8 6.6-4.6 4.4-1.1 8.8 1 10.1 6.3 1.3 5.3-1.5 9.2-6 10.3-3.5.9-7-.6-7.6-1.1l-.7 5.7c.9.6 4.5 2.1 10 .8 7.8-1.9 12.8-8.7 10.7-17.3-2.1-8.7-9.6-12.3-17.5-10.4-5.5 1.4-7.8 4.3-8.8 6.1l3.2 4.2zm37.5-7.3c-2.7-4.6-1.4-9.2 2.6-11.6 4-2.3 8.7-1.2 11.4 3.4 2.7 4.6 1.4 9.2-2.6 11.6-4 2.3-8.7 1.1-11.4-3.4m-5.7 3.2c4.5 7.7 12.8 9.1 19.9 4.9 7.1-4.2 9.9-12.1 5.4-19.8-4.5-7.7-12.8-9-19.9-4.9-7.1 4.2-10 12.1-5.4 19.8m27.6-24.9c1.8 1.8 3.7 2.3 5.3 2.3 1.8 0 3.6-.8 4.3-1.1.9-.4 2.8-1.3 4-1.8 1.2-.5 2.8-1.2 4 0 1.2 1.2.7 2.8-.8 4.3s-4.1 2.4-6.4 2.4l1.2 5.2c2.7 0 6.4-1.5 8.6-3.8 2.3-2.3 3.5-4.7 3.6-6.7.2-2.1-.4-4.5-2.2-6.3-1.8-1.9-3.7-2.3-5.3-2.3-1.7 0-3 .6-3.8.9-.9.4-2.9 1.3-4.1 1.9-1.2.5-3.1 1.5-4.5.1-1.3-1.3-.9-3.2.6-4.6 1.5-1.5 4.7-2.7 7.6-2.6l-1.1-5.6c-3.1.1-7.1 1.1-9.9 4-2.1 2.1-3.4 4.4-3.7 6.9 0 2.3.8 4.9 2.6 6.8m50.1-36.1l2.1-6-11.9-4.2c-2.8-1-5.8-1.9-5.8-1.9l21.5-5.1 2.3-6.6-26.1-9.2-2.1 6 11.8 4.1c2.8 1 6 2 6 2l-21.8 5.3-2.2 6.3 26.2 9.3zm-2.2-45.6c-5.3-.2-8.5-3.9-8.3-8.5.2-4.6 3.7-7.9 9-7.7 5.3.2 8.5 3.9 8.3 8.5-.2 4.6-3.7 7.9-9 7.7m-.5 6.5c8.9.4 14.6-5.8 15-14 .4-8.2-4.7-14.9-13.7-15.3-8.9-.4-14.6 5.8-14.9 14-.3 8.2 4.7 14.9 13.6 15.3m13.2-40.8l-.9-6.4-27.4 4 .9 6.4 27.4-4zm-3.1-17.2l-6.9-19.6-4.8 1.7 2.4 6.7-21.3 7.5 2.2 6.1 21.3-7.5 2.4 6.7 4.7-1.6zm-32.9-31.7l10.3-2.1-6.8 8-3.5-5.9zm18.3-2.6l-3.4-5.8-29.2 5.1 3.4 5.8 5.8-1.1 5 8.5-3.8 4.5 3.6 6.1 18.6-23.1zm-31.2-11c-2.2 0-4.9-.8-7.3-3.2-3.2-3.2-3.7-8.1.2-11.9 3.8-3.8 8.6-3.5 11.9-.1 2.6 2.6 3.1 6.3 3 7.1l5.2-2.4c0-1-.5-4.9-4.5-9-5.7-5.7-14-6.6-20.4-.3-6.3 6.3-5.7 14.6.1 20.4 4 4 7.7 4.5 9.7 4.4l2.1-5zm-13.3-37.3l-5.6-3.3-8.2 13.9c-1 1.7-1.9 2.9-3.3 3.4-1.3.4-2.7.4-4.3-.6-1.6-.9-2.3-2.2-2.5-3.5-.2-1.4.4-2.8 1.4-4.5l8.3-13.9-5.7-3.4-8.3 13.9c-2 3.3-2.8 6-2.2 8.8.6 2.8 2.6 5.4 6 7.4 3.4 2.1 6.7 2.6 9.4 1.8 2.8-.8 4.7-2.8 6.7-6.1l8.3-13.9zm-43.5-5.6c-.8 3.3-2.5 4.8-3.9 5.6-1.4.8-3.5 1.2-6.1.6l-3.2-.8 4-16.3 3.2.8c2.6.6 4.3 2 5.2 3.3.8 1.2 1.6 3.5.8 6.8m6.4 1.5c1.3-5.2-.1-8.9-1.9-11.3-1.8-2.5-4.9-4.6-9.6-5.8l-9.1-2.2-6.5 26.9 9.1 2.2c4.7 1.1 8.5.7 11.2-.7 2.7-1.2 5.5-3.8 6.8-9.1m-34.7 1.5h-11.8v-6.4h10.8v-5.2h-10.8V159h11.5v-5.2l-17.9.1.1 27.7 18.3-.1-.2-5.2zm-49.4 6.2l-11 4.5-2.4-6 10-4.1-1.9-4.8-10 4.1-2.1-5.2 10.6-4.3-2-4.8-16.6 6.8 10.4 25.7 17-6.9-2-5zm-27.2 9.2c-.3 2.2-1.5 4.7-4.3 6.8-3.7 2.7-8.5 2.4-11.7-2-3.2-4.4-2.1-9 1.7-11.8 2.9-2.2 6.6-2.1 7.5-1.9l-1.6-5.5c-1-.2-4.9-.3-9.5 3.1-6.5 4.8-8.6 12.9-3.3 20.1 5.3 7.2 13.6 7.8 20.2 3 4.6-3.3 5.6-6.9 5.8-8.9l-4.8-2.9zm-38.2 6.5l-4.4 4.8 20.5 18.7 4.4-4.8-20.5-18.7zm-10.9 12.2l-11.5 17.3 4.3 2.8 4-5.9 18.8 12.5 3.6-5.4-18.8-12.5 4-5.9-4.4-2.9zm1.7 33.6c-2.3-.9-4.2-.6-5.8 0-1.6.7-3 2.1-3.5 2.7-.7.7-2.1 2.3-3 3.2-.9 1-2.1 2.2-3.7 1.5-1.6-.6-1.7-2.3-.9-4.3.8-1.9 2.8-3.8 4.9-4.7l-3.2-4.3c-2.5 1-5.3 3.9-6.5 6.9-1.2 3-1.3 5.7-.7 7.6.6 2 2.1 4 4.5 5s4.3.7 5.8 0 2.5-1.8 3.1-2.3c.7-.7 2.2-2.4 3-3.3.9-1 2.3-2.6 4.1-1.9 1.7.7 2 2.6 1.2 4.5-.8 2-3.3 4.3-6 5.4l3.2 4.8c2.8-1.3 6.1-3.8 7.6-7.5 1.1-2.8 1.4-5.4.7-7.8-.6-2.4-2.4-4.5-4.8-5.5m-28.8 24.2l-.9 6.5 16 2.3c1.9.3 3.4.7 4.4 1.7.9 1 1.4 2.4 1.2 4.2-.3 1.8-1.1 3-2.3 3.7-1.2.8-2.8.7-4.7.4l-16-2.3-.9 6.5 16 2.3c3.9.6 6.6.3 9-1.4 2.3-1.7 4-4.4 4.5-8.4.6-4-.2-7.1-2-9.3-1.8-2.2-4.4-3.3-8.2-3.8l-16.1-2.4zm-2.9 36.5l.3 6.5 27.2-1.4c2-.1 3.2.3 3.3 1.8 0 .9-.1 1.7-.3 2.2h4.8c.2-.4.5-2.2.4-4.2-.1-2.2-1-3.9-2.3-4.9-1.3-1.1-3.4-1.6-6.3-1.4l-27.1 1.4z" fill="#636a69"/><path d="M406.8 250.7c11.5 3 22.9 5.9 34 6 7.8 0 15.5-1.5 22.7-5.7 1.4-.8 1.9-2.7 1.1-4.1-.8-1.4-2.7-1.9-4.1-1.1-6.2 3.5-12.7 4.9-19.7 4.9-10.5.1-22-3.1-34.1-6.2-.2-10.7-.4-17.6-.4-17.6-.1-2-1.7-3.5-3.7-3.4-2 .1-3.5 1.7-3.4 3.7 0 0 .2 6.1.4 15.6-8.8-2.1-18-3.8-27.2-3.8-10.5 0-21.4 2.3-31.9 8.7-1.4.9-1.9 2.7-1 4.1.9 1.4 2.7 1.9 4.2 1 9.5-5.8 19-7.8 28.7-7.8 9 0 18.2 1.8 27.3 4 .1 6.3.2 13.5.2 21.2 0 18.5.8 40.2-.6 53.4-.3 3-.8 6-2.3 8.6-3.4 5.8-8 11.1-14 14.3-6.8 3.7-14.6 3.3-22.1 4.6-3.3.6-16.9 2.7-14.2 8.7.8 1.8 3.3 2.6 5.1 1.8 9.2-4.1 19.5-4.5 29.4-3.9 16.4 1 32.7 3.2 49.2 3.9 7.3.3 15.1 1 22.3-.4 2.5-.5 8.1-1.4 8.3-4.8.2-4.3-7.2-3.3-9.8-2.9-2.1.3-4.2.5-6.4.5-4 .1-8-.2-11.9-1-3.6-.8-7-2-10.2-3.7-3-1.6-5.8-3.6-8.1-6.1-2.3-2.4-4.2-5.2-5.5-8.3-1.4-3.2-2.2-6.7-2.4-10.2 0-.6-.1-1.2-.1-1.9 0-7.8-.1-29.8-.1-29.8l.3-42.3z" fill="#636969"/></svg>