<?xml version="1.0" encoding="utf-8"?>
<!-- Generator: Adobe Illustrator 19.2.1, SVG Export Plug-In . SVG Version: 6.00 Build 0)  -->
<svg version="1.1" id="Layer_1" xmlns="http://www.w3.org/2000/svg" xmlns:xlink="http://www.w3.org/1999/xlink" x="0px" y="0px"
	 viewBox="0 0 600 600" style="enable-background:new 0 0 600 600;" xml:space="preserve">
<path d="M363.3,316.7c0.5-1,0-2.2-1-2.7c-2.7-1.2-5.2-4.6-7.2-9.6c-6-15-6.7-41.9-6.7-51.8c0-2.4,0-3.8,0-3.8c0-1.1-0.9-2.1-2-2.1
	c-0.5,0-0.8,0.2-1.2,0.4c-0.3-0.2-0.6-0.4-1-0.4c-1.1,0-1.9,0.9-1.9,2l0,0c0,0,0,1.3,0,3.5c0,6-0.3,19-2.3,31.1
	c-1,6-2.4,11.8-4.4,16.4c-2,4.6-4.5,7.7-7.2,8.8c-1,0.4-1.5,1.6-1,2.6c0.3,0.7,1,1.2,1.8,1.2c0.3,0,0.5-0.1,0.8-0.2
	c4.2-1.8,7.1-5.9,9.3-10.9c3.2-7.4,4.9-17.3,5.8-26.4c0.3,4,0.8,8.2,1.4,12.3c1,6.8,2.5,13.4,4.6,18.8c2.2,5.4,5,9.8,9.3,11.8
	c0.3,0.1,0.6,0.2,0.8,0.2C362.2,317.9,363,317.5,363.3,316.7 M475.7,308.6c-2.7-1.1-5.3-4.3-7.2-8.9c-6-13.8-6.7-38.9-6.6-48.1
	c0-2.2,0-3.5,0-3.5c0-0.5-1-0.2-1.9,0.5c0-0.3,0-0.6,0-0.6c0,0-4,1.5-4,3.9c0,6.6-0.3,21-2.3,34.3c-1,6.7-2.4,13.1-4.4,18.1
	c-2,5-4.5,8.5-7.2,9.7c-1,0.5-1.5,1.7-1,2.7c0.3,0.7,1.1,1.2,1.9,1.2c0.3,0,0.6-0.1,0.8-0.2c4.3-2,7.1-6.5,9.3-11.9
	c3.4-8.8,5.1-20.7,6-31.5c0.3,3.1,0.7,6.2,1.2,9.4c1,6.3,2.5,12.4,4.6,17.5c2.2,5,5,9.1,9.3,11c0.3,0.1,0.5,0.2,0.8,0.2
	c0.8,0,1.5-0.4,1.8-1.2C477.2,310.1,476.7,309,475.7,308.6"/>
<path d="M490,321.7c-4-3.7-9.1-4.8-14.3-4.8c-11.9,0.1-25.8,5.6-34.6,5.5c-3,0-5.1-0.6-6.4-1.8c-1.1-1-2.7-0.8-3.6,0.5
	c-0.9,1.2-0.7,3,0.4,3.9c2.7,2.3,6.1,3,9.6,3c0.5,0,1,0,1.5-0.1c4.9,2.1,10.4,3.3,16.2,3.3c9.1,0,17.4-2.9,23.9-7.7
	c1.5,0.6,2.8,1.3,3.9,2.4v0c1.1,1,2.7,0.9,3.7-0.3C491.2,324.5,491.1,322.7,490,321.7 M370.5,320.7c-1.3,1.1-3.4,1.8-6.4,1.8
	c-8.8,0.1-22.7-5.5-34.6-5.5c-5.2,0-10.3,1.1-14.3,4.8c-1.1,1-1.2,2.8-0.3,4c0.9,1.2,2.6,1.3,3.7,0.3v0c1.1-1,2.4-1.8,3.9-2.4
	c6.5,4.8,14.8,7.7,23.9,7.7c5.8,0,11.3-1.2,16.2-3.3c0.5,0,1,0.1,1.5,0.1c3.5,0,6.9-0.7,9.6-3c1.1-1,1.3-2.7,0.4-3.9
	C373.2,319.9,371.6,319.7,370.5,320.7"/>
<path d="M227,414.5c0.2,1.1,0.5,2.6,1,4.4c0.5,1.8,1.2,3.8,2,5.9c0.9,2.1,2,4.3,3.4,6.5c1.4,2.2,3,4.2,5,6.1
	c2.2,2.2,4.2,3.8,6.3,4.9c2,1.1,3.9,1.9,5.8,2.5c1.8,0.5,3.6,0.8,5.2,0.8c1.6,0.1,3.2,0.1,4.6,0.1c5,0,9-0.8,12.2-2.3
	c3.2-1.5,5.7-3.4,7.5-5.7c1.8-2.3,3.1-4.6,3.9-7.1c0.8-2.5,1.1-4.7,1.1-6.5c0-3.5-0.8-6.3-2.5-8.6c-1.6-2.3-3.8-4.1-6.5-5.6
	c-2.7-1.5-5.8-2.8-9.3-3.8c-3.5-1-7-2.1-10.7-3.2c-3.7-1.1-7.2-2.3-10.7-3.8c-3.5-1.5-6.6-3.3-9.3-5.6c-2.7-2.3-4.9-5.1-6.5-8.5
	c-1.6-3.4-2.5-7.6-2.5-12.7c0-3.7,0.8-7.4,2.5-10.8c1.7-3.5,4-6.5,7-9.2c3-2.7,6.6-4.8,10.8-6.5c4.2-1.6,8.7-2.5,13.6-2.5
	c3.1,0,5.8,0.3,8.2,0.8c2.3,0.6,4.4,1.2,6.2,1.8c1.8,0.6,3.3,1.2,4.7,1.8c1.4,0.6,2.6,0.8,3.7,0.8c1.3,0,2.2-0.2,2.6-0.6
	s0.9-1.2,1.3-2.3h2.2v26.7h-1.8c-1.1-3.3-2.3-6.5-3.6-9.7c-1.3-3.2-2.9-6.1-4.9-8.7c-2-2.6-4.5-4.7-7.5-6.3c-3-1.6-6.8-2.4-11.4-2.4
	c-3.8,0-7.1,0.5-9.9,1.5c-2.9,1-5.3,2.4-7.2,4.1c-2,1.7-3.5,3.6-4.5,5.6c-1,2.1-1.5,4.2-1.5,6.3c0,3.3,0.9,6,2.6,8.2
	c1.7,2.2,4,4,6.8,5.6c2.8,1.5,6,2.9,9.6,4c3.6,1.1,7.3,2.3,11.1,3.5c3.8,1.2,7.5,2.6,11.1,4c3.6,1.5,6.8,3.3,9.6,5.6
	c2.8,2.3,5.1,5,6.8,8.2c1.7,3.2,2.6,7.1,2.6,11.8c0,4.6-0.9,9-2.8,13.1c-1.9,4.1-4.5,7.7-7.9,10.8c-3.4,3.1-7.5,5.6-12.2,7.4
	c-4.7,1.8-10,2.7-15.8,2.7c-2.9,0-5.8-0.3-8.6-0.8c-2.9-0.6-5.5-1.1-8-1.8c-2.5-0.6-4.7-1.2-6.6-1.8c-1.9-0.6-3.4-0.8-4.3-0.8
	c-1.3,0-2.3,0.2-2.8,0.6c-0.6,0.4-1.1,1.3-1.5,2.6h-2.3v-31.2H227z M205.4,345.5v24.1h-1.8c-0.5-1.6-1.3-3.6-2.4-6.1
	c-1.1-2.5-2.7-4.9-4.7-7.2c-2-2.3-4.6-4.4-7.8-6.1c-3.2-1.7-7.1-2.6-11.7-2.6h-22.4V391h7.9c3.5,0,6.4-0.5,8.8-1.5
	c2.4-1,4.4-2.4,6-4.2c1.6-1.8,2.9-4,3.9-6.6c1-2.6,1.9-5.5,2.5-8.6h1.8v43.7h-1.8c-0.7-2.7-1.4-5.3-2.3-7.9
	c-0.9-2.5-2.1-4.8-3.6-6.7c-1.5-1.9-3.4-3.4-5.6-4.6c-2.2-1.1-4.9-1.7-8.2-1.7h-9.4v50.8h23.1c4.3,0,8.2-0.7,11.7-2.2
	c3.5-1.5,6.5-3.5,9.2-6.1c2.7-2.6,4.9-5.7,6.7-9.2c1.8-3.5,3.1-7.3,4.1-11.3h1.8v30.8h-89.9v-2h12.9v-96.2h-12.9v-2H205.4z
	 M99.8,425.7c-0.3,3.5-1.4,6.8-3.2,10.1c-1.8,3.2-4.6,6-8.4,8.4c-3.8,2.3-9.2,3.5-16.1,3.5c-2.4,0-5-0.2-7.6-0.6
	c-2.6-0.4-5-1.2-7.2-2.3c-2.2-1.1-3.9-2.7-5.3-4.6c-1.4-2-2.1-4.5-2.1-7.5c0-0.5,0-1.2,0.1-2.3c0.1-1.1,0.5-2.2,1.2-3.3
	c0.7-1.1,1.8-2.1,3.3-3c1.5-0.9,3.7-1.3,6.5-1.3c0.8,0,1.6,0.1,2.6,0.2c1,0.1,1.9,0.4,2.8,0.9c0.9,0.5,1.6,1.1,2.2,2
	c0.6,0.9,0.9,2.1,0.9,3.6c0,0.7-0.1,1.5-0.3,2.5c-0.2,1-0.4,2.1-0.7,3.2c-0.3,1.1-0.5,2.2-0.7,3.1c-0.2,0.9-0.3,1.6-0.3,2
	c0,1.4,0.3,2.5,0.8,3.2c0.5,0.8,1.1,1.3,1.8,1.6c0.7,0.3,1.3,0.5,2,0.6c0.7,0.1,1.2,0.1,1.6,0.1c1.6,0,2.8-0.3,3.6-0.9
	s1.4-1.4,1.8-2.3c0.4-0.9,0.6-1.9,0.6-3c0-1.1,0.1-2,0.1-2.9v-89H67v-2h46.3v2h-12.9V417C100.3,419.3,100.1,422.2,99.8,425.7"/>
<path d="M325.8,422.6l10.5-6.6l-0.8,12.4l6.2,3.7l0.2-19.1l5.7-9.6L342,400l-5.7,9.6l-16.7,9.3L325.8,422.6z M352.1,436.1L372,442
	l1.5-4.9l-6.8-2l6.4-21.6l-6.2-1.8l-6.4,21.6l-6.8-2L352.1,436.1z M384.3,421.5l11.8,1.1l-0.6,6.4l-10.8-1l-0.5,5.2l10.8,1l-0.5,5.6
	l-11.4-1.1l-0.5,5.2l17.9,1.7L403,418l-18.2-1.7L384.3,421.5z M414,444.9l6.5-0.6l-2.7-27.6l-6.5,0.6L414,444.9z M428.1,423.7
	c1.1-1.9,3.2-3.8,6.6-4.6c4.4-1.1,8.8,1,10.1,6.3c1.3,5.3-1.5,9.2-6,10.3c-3.5,0.9-7-0.6-7.6-1.1l-0.7,5.7c0.9,0.6,4.5,2.1,10,0.8
	c7.8-1.9,12.8-8.7,10.7-17.3c-2.1-8.7-9.6-12.3-17.5-10.4c-5.5,1.4-7.8,4.3-8.8,6.1L428.1,423.7z M465.6,416.4
	c-2.7-4.6-1.4-9.2,2.6-11.6c4-2.3,8.7-1.2,11.4,3.4c2.7,4.6,1.4,9.2-2.6,11.6C473,422.1,468.3,420.9,465.6,416.4 M459.9,419.6
	c4.5,7.7,12.8,9.1,19.9,4.9c7.1-4.2,9.9-12.1,5.4-19.8c-4.5-7.7-12.8-9-19.9-4.9C458.2,404,455.3,411.9,459.9,419.6 M487.5,394.7
	c1.8,1.8,3.7,2.3,5.3,2.3c1.8,0,3.6-0.8,4.3-1.1c0.9-0.4,2.8-1.3,4-1.8c1.2-0.5,2.8-1.2,4,0c1.2,1.2,0.7,2.8-0.8,4.3
	c-1.5,1.5-4.1,2.4-6.4,2.4l1.2,5.2c2.7,0,6.4-1.5,8.6-3.8c2.3-2.3,3.5-4.7,3.6-6.7c0.2-2.1-0.4-4.5-2.2-6.3
	c-1.8-1.9-3.7-2.3-5.3-2.3c-1.7,0-3,0.6-3.8,0.9c-0.9,0.4-2.9,1.3-4.1,1.9c-1.2,0.5-3.1,1.5-4.5,0.1c-1.3-1.3-0.9-3.2,0.6-4.6
	c1.5-1.5,4.7-2.7,7.6-2.6l-1.1-5.6c-3.1,0.1-7.1,1.1-9.9,4c-2.1,2.1-3.4,4.4-3.7,6.9C484.9,390.2,485.7,392.8,487.5,394.7
	 M537.6,358.6l2.1-6l-11.9-4.2c-2.8-1-5.8-1.9-5.8-1.9l21.5-5.1l2.3-6.6l-26.1-9.2l-2.1,6l11.8,4.1c2.8,1,6,2,6,2l-21.8,5.3
	l-2.2,6.3L537.6,358.6z M535.4,313c-5.3-0.2-8.5-3.9-8.3-8.5c0.2-4.6,3.7-7.9,9-7.7c5.3,0.2,8.5,3.9,8.3,8.5
	C544.2,309.9,540.7,313.2,535.4,313 M534.9,319.5c8.9,0.4,14.6-5.8,15-14c0.4-8.2-4.7-14.9-13.7-15.3c-8.9-0.4-14.6,5.8-14.9,14
	C521,312.4,526,319.1,534.9,319.5 M548.1,278.7l-0.9-6.4l-27.4,4l0.9,6.4L548.1,278.7z M545,261.5l-6.9-19.6l-4.8,1.7l2.4,6.7
	l-21.3,7.5l2.2,6.1l21.3-7.5l2.4,6.7L545,261.5z M512.1,229.8l10.3-2.1l-6.8,8L512.1,229.8z M530.4,227.2l-3.4-5.8l-29.2,5.1
	l3.4,5.8l5.8-1.1l5,8.5l-3.8,4.5l3.6,6.1L530.4,227.2z M499.2,216.2c-2.2,0-4.9-0.8-7.3-3.2c-3.2-3.2-3.7-8.1,0.2-11.9
	c3.8-3.8,8.6-3.5,11.9-0.1c2.6,2.6,3.1,6.3,3,7.1l5.2-2.4c0-1-0.5-4.9-4.5-9c-5.7-5.7-14-6.6-20.4-0.3c-6.3,6.3-5.7,14.6,0.1,20.4
	c4,4,7.7,4.5,9.7,4.4L499.2,216.2z M485.9,178.9l-5.6-3.3l-8.2,13.9c-1,1.7-1.9,2.9-3.3,3.4c-1.3,0.4-2.7,0.4-4.3-0.6
	c-1.6-0.9-2.3-2.2-2.5-3.5c-0.2-1.4,0.4-2.8,1.4-4.5l8.3-13.9L466,167l-8.3,13.9c-2,3.3-2.8,6-2.2,8.8c0.6,2.8,2.6,5.4,6,7.4
	c3.4,2.1,6.7,2.6,9.4,1.8c2.8-0.8,4.7-2.8,6.7-6.1L485.9,178.9z M442.4,173.3c-0.8,3.3-2.5,4.8-3.9,5.6c-1.4,0.8-3.5,1.2-6.1,0.6
	l-3.2-0.8l4-16.3l3.2,0.8c2.6,0.6,4.3,2,5.2,3.3C442.4,167.7,443.2,170,442.4,173.3 M448.8,174.8c1.3-5.2-0.1-8.9-1.9-11.3
	c-1.8-2.5-4.9-4.6-9.6-5.8l-9.1-2.2l-6.5,26.9l9.1,2.2c4.7,1.1,8.5,0.7,11.2-0.7C444.7,182.7,447.5,180.1,448.8,174.8 M414.1,176.3
	l-11.8,0l0-6.4l10.8,0l0-5.2l-10.8,0l0-5.7l11.5,0l0-5.2l-17.9,0.1l0.1,27.7l18.3-0.1L414.1,176.3z M364.7,182.5l-11,4.5l-2.4-6
	l10-4.1l-1.9-4.8l-10,4.1l-2.1-5.2l10.6-4.3l-2-4.8l-16.6,6.8l10.4,25.7l17-6.9L364.7,182.5z M337.5,191.7c-0.3,2.2-1.5,4.7-4.3,6.8
	c-3.7,2.7-8.5,2.4-11.7-2c-3.2-4.4-2.1-9,1.7-11.8c2.9-2.2,6.6-2.1,7.5-1.9l-1.6-5.5c-1-0.2-4.9-0.3-9.5,3.1
	c-6.5,4.8-8.6,12.9-3.3,20.1c5.3,7.2,13.6,7.8,20.2,3c4.6-3.3,5.6-6.9,5.8-8.9L337.5,191.7z M299.3,198.2l-4.4,4.8l20.5,18.7
	l4.4-4.8L299.3,198.2z M288.4,210.4l-11.5,17.3l4.3,2.8l4-5.9l18.8,12.5l3.6-5.4l-18.8-12.5l4-5.9L288.4,210.4z M290.1,244
	c-2.3-0.9-4.2-0.6-5.8,0c-1.6,0.7-3,2.1-3.5,2.7c-0.7,0.7-2.1,2.3-3,3.2c-0.9,1-2.1,2.2-3.7,1.5c-1.6-0.6-1.7-2.3-0.9-4.3
	c0.8-1.9,2.8-3.8,4.9-4.7l-3.2-4.3c-2.5,1-5.3,3.9-6.5,6.9c-1.2,3-1.3,5.7-0.7,7.6c0.6,2,2.1,4,4.5,5c2.4,1,4.3,0.7,5.8,0
	c1.5-0.7,2.5-1.8,3.1-2.3c0.7-0.7,2.2-2.4,3-3.3c0.9-1,2.3-2.6,4.1-1.9c1.7,0.7,2,2.6,1.2,4.5c-0.8,2-3.3,4.3-6,5.4l3.2,4.8
	c2.8-1.3,6.1-3.8,7.6-7.5c1.1-2.8,1.4-5.4,0.7-7.8C294.3,247.1,292.5,245,290.1,244 M261.3,268.2l-0.9,6.5l16,2.3
	c1.9,0.3,3.4,0.7,4.4,1.7c0.9,1,1.4,2.4,1.2,4.2c-0.3,1.8-1.1,3-2.3,3.7c-1.2,0.8-2.8,0.7-4.7,0.4l-16-2.3l-0.9,6.5l16,2.3
	c3.9,0.6,6.6,0.3,9-1.4c2.3-1.7,4-4.4,4.5-8.4c0.6-4-0.2-7.1-2-9.3c-1.8-2.2-4.4-3.3-8.2-3.8L261.3,268.2z M258.4,304.7l0.3,6.5
	l27.2-1.4c2-0.1,3.2,0.3,3.3,1.8c0,0.9-0.1,1.7-0.3,2.2l4.8,0c0.2-0.4,0.5-2.2,0.4-4.2c-0.1-2.2-1-3.9-2.3-4.9
	c-1.3-1.1-3.4-1.6-6.3-1.4L258.4,304.7z"/>
<path d="M406.8,250.7c11.5,3,22.9,5.9,34,6c7.8,0,15.5-1.5,22.7-5.7c1.4-0.8,1.9-2.7,1.1-4.1c-0.8-1.4-2.7-1.9-4.1-1.1
	c-6.2,3.5-12.7,4.9-19.7,4.9c-10.5,0.1-22-3.1-34.1-6.2c-0.2-10.7-0.4-17.6-0.4-17.6c-0.1-2-1.7-3.5-3.7-3.4c-2,0.1-3.5,1.7-3.4,3.7
	c0,0,0.2,6.1,0.4,15.6c-8.8-2.1-18-3.8-27.2-3.8c-10.5,0-21.4,2.3-31.9,8.7c-1.4,0.9-1.9,2.7-1,4.1c0.9,1.4,2.7,1.9,4.2,1
	c9.5-5.8,19-7.8,28.7-7.8c9,0,18.2,1.8,27.3,4c0.1,6.3,0.2,13.5,0.2,21.2c0,18.5,0.8,40.2-0.6,53.4c-0.3,3-0.8,6-2.3,8.6
	c-3.4,5.8-8,11.1-14,14.3c-6.8,3.7-14.6,3.3-22.1,4.6c-3.3,0.6-16.9,2.7-14.2,8.7c0.8,1.8,3.3,2.6,5.1,1.8
	c9.2-4.1,19.5-4.5,29.4-3.9c16.4,1,32.7,3.2,49.2,3.9c7.3,0.3,15.1,1,22.3-0.4c2.5-0.5,8.1-1.4,8.3-4.8c0.2-4.3-7.2-3.3-9.8-2.9
	c-2.1,0.3-4.2,0.5-6.4,0.5c-4,0.1-8-0.2-11.9-1c-3.6-0.8-7-2-10.2-3.7c-3-1.6-5.8-3.6-8.1-6.1c-2.3-2.4-4.2-5.2-5.5-8.3
	c-1.4-3.2-2.2-6.7-2.4-10.2c0-0.6-0.1-1.2-0.1-1.9c0-7.8-0.1-29.8-0.1-29.8L406.8,250.7z"/>
</svg>
